<svg width="182" height="182" viewBox="0 0 182 182" fill="none" xmlns="http://www.w3.org/2000/svg">
<path d="M9.76091 63.6888L10.6677 60.6627L17.8086 62.8026C18.6576 63.057 19.3315 63.4804 19.8302 64.0727C20.3263 64.6603 20.6349 65.3657 20.756 66.1889C20.8734 67.011 20.7892 67.8992 20.5032 68.8535C20.2151 69.815 19.7959 70.6068 19.2457 71.2288C18.6919 71.8498 18.0462 72.2692 17.3086 72.4871C16.5686 72.7003 15.774 72.6797 14.9249 72.4253L7.78414 70.2854L8.69097 67.2592L15.5705 69.3208C15.9152 69.4241 16.2465 69.4404 16.5643 69.3695C16.8785 69.2976 17.152 69.1502 17.3848 68.9274C17.6188 68.7009 17.7874 68.4153 17.8907 68.0706C17.9951 67.7223 18.0113 67.391 17.9394 67.0768C17.8675 66.7627 17.7201 66.4892 17.4972 66.2563C17.2708 66.0223 16.9852 65.8537 16.6405 65.7504L9.76091 63.6888Z" fill="white"/>
<path d="M21.4785 40.641L31.3417 46.8154L29.9428 49.05L22.5298 49.3699L22.4937 49.4277L27.6757 52.6717L25.9994 55.3494L16.1363 49.175L17.5593 46.9018L24.9168 46.6277L24.9651 46.5506L19.8023 43.3187L21.4785 40.641Z" fill="white"/>
<path d="M32.2411 28.7009L40.2574 37.1356L37.9675 39.3119L29.9512 30.8772L32.2411 28.7009Z" fill="white"/>
<path d="M45.3102 18.5449L51.6233 24.3029L51.7009 24.2556L49.4609 16.0098L52.506 14.15L55.2934 26.0826L51.6082 28.3334L42.2651 20.4048L45.3102 18.5449Z" fill="white"/>
<path d="M67.6823 20.6265L64.6387 9.39522L72.7331 7.20168L73.3989 9.65852L68.3536 11.0258L68.8767 12.9561L73.5053 11.7018L74.171 14.1587L69.5425 15.413L70.0656 17.3434L75.089 15.9821L75.7548 18.4389L67.6823 20.6265Z" fill="white"/>
<path d="M86.936 17V5.36364H91.9587C92.8223 5.36364 93.578 5.52083 94.2257 5.83523C94.8735 6.14962 95.3772 6.60227 95.7371 7.19318C96.0969 7.78409 96.2769 8.49242 96.2769 9.31818C96.2769 10.1515 96.0913 10.8542 95.72 11.4261C95.3526 11.9981 94.8356 12.4299 94.1689 12.7216C93.506 13.0133 92.7314 13.1591 91.845 13.1591H88.845V10.7045H91.2087C91.5799 10.7045 91.8962 10.6591 92.1575 10.5682C92.4227 10.4735 92.6254 10.3239 92.7655 10.1193C92.9094 9.91477 92.9814 9.64773 92.9814 9.31818C92.9814 8.98485 92.9094 8.71402 92.7655 8.50568C92.6254 8.29356 92.4227 8.13826 92.1575 8.03977C91.8962 7.9375 91.5799 7.88636 91.2087 7.88636H90.095V17H86.936ZM93.7541 11.6591L96.6632 17H93.2314L90.3905 11.6591H93.7541Z" fill="white"/>
<path d="M114.777 12.4627C114.847 12.0892 114.787 11.7669 114.598 11.4958C114.412 11.2256 114.072 11.0237 113.579 10.89C113.264 10.8048 112.996 10.7733 112.774 10.7956C112.557 10.8152 112.383 10.8761 112.254 10.9783C112.124 11.0805 112.035 11.2134 111.987 11.3769C111.943 11.5102 111.933 11.6391 111.958 11.7637C111.988 11.8855 112.053 12.0072 112.154 12.1286C112.255 12.2464 112.394 12.3663 112.569 12.4882C112.744 12.6102 112.957 12.7348 113.209 12.8619L114.077 13.309C114.663 13.6091 115.148 13.9269 115.532 14.2625C115.915 14.5981 116.209 14.9503 116.411 15.319C116.614 15.6841 116.732 16.0655 116.766 16.4631C116.803 16.8617 116.766 17.2754 116.653 17.7041C116.45 18.4417 116.095 19.0168 115.591 19.4296C115.087 19.8423 114.459 20.09 113.706 20.1726C112.958 20.2562 112.108 20.1692 111.157 19.9116C110.181 19.6471 109.368 19.2718 108.719 18.7859C108.074 18.3009 107.631 17.7041 107.391 16.9955C107.156 16.2843 107.164 15.4584 107.415 14.5178L110.311 15.3025C110.236 15.6511 110.244 15.9632 110.334 16.2388C110.424 16.5144 110.591 16.7501 110.837 16.9461C111.085 17.143 111.404 17.294 111.791 17.399C112.117 17.4872 112.4 17.5208 112.641 17.4998C112.882 17.4788 113.079 17.4124 113.231 17.3005C113.383 17.1887 113.485 17.0418 113.538 16.86C113.581 16.6872 113.565 16.5219 113.49 16.3642C113.42 16.2039 113.276 16.0393 113.059 15.8706C112.843 15.6982 112.539 15.5098 112.147 15.3055L111.093 14.761C110.157 14.2758 109.471 13.7032 109.033 13.0431C108.601 12.3804 108.505 11.6108 108.747 10.7343C108.936 10.0204 109.295 9.44856 109.824 9.01881C110.357 8.5864 111.006 8.31293 111.771 8.19841C112.539 8.08488 113.368 8.14849 114.256 8.38924C115.163 8.63495 115.906 8.99919 116.486 9.48197C117.065 9.96475 117.459 10.5307 117.668 11.1799C117.881 11.8263 117.89 12.5175 117.695 13.2534L114.777 12.4627Z" fill="white"/>
<path d="M132.836 16.2591L127.178 26.4272L124.418 24.8912L130.076 14.723L132.836 16.2591Z" fill="white"/>
<path d="M139.668 35.2534L136.291 32.3135L143.932 23.5372L147.274 26.4473C148.177 27.2333 148.804 28.088 149.155 29.0115C149.512 29.9345 149.583 30.8801 149.368 31.8481C149.158 32.8157 148.655 33.7566 147.859 34.6708C147.063 35.585 146.201 36.2152 145.272 36.5613C144.345 36.9046 143.402 36.9672 142.441 36.749C141.484 36.528 140.559 36.0295 139.668 35.2534ZM140.435 32.3652L141.343 33.1562C141.777 33.5342 142.208 33.7863 142.636 33.9125C143.066 34.0411 143.511 34.0037 143.969 33.8001C144.43 33.5991 144.927 33.1929 145.46 32.5815C145.992 31.9701 146.324 31.4209 146.457 30.9338C146.593 30.4492 146.563 29.9989 146.368 29.5828C146.175 29.1692 145.851 28.7635 145.393 28.3655L144.554 27.6343L140.435 32.3652Z" fill="white"/>
<path d="M152.397 49.6485L150.546 46.7857L162.403 43.6926L164.748 47.3187L157.062 56.8626L155.211 53.9998L160.909 47.2839L160.86 47.2075L152.397 49.6485ZM155.906 46.6212L159.387 52.0032L157.402 53.2866L153.922 47.9047L155.906 46.6212Z" fill="white"/>
<path d="M162.122 70.4788L160.869 66.1803L172.041 62.9245L173.281 67.1793C173.616 68.3285 173.682 69.3864 173.478 70.3532C173.279 71.3226 172.828 72.1564 172.124 72.8547C171.425 73.5557 170.493 74.0757 169.33 74.4148C168.166 74.754 167.1 74.8182 166.131 74.6073C165.165 74.3955 164.338 73.9383 163.648 73.2359C162.961 72.5324 162.453 71.6134 162.122 70.4788ZM164.328 68.4629L164.665 69.6193C164.826 70.1721 165.053 70.617 165.344 70.9542C165.637 71.295 166.031 71.5037 166.527 71.5802C167.024 71.6603 167.661 71.5869 168.439 71.3601C169.217 71.1333 169.794 70.8508 170.169 70.5127C170.545 70.1783 170.763 69.7832 170.824 69.3276C170.885 68.8757 170.831 68.3588 170.662 67.7769L170.35 66.7078L164.328 68.4629Z" fill="white"/>
<path d="M91 181C140.706 181 181 140.706 181 91.0001C181 41.2945 140.706 1.00012 91 1.00012C41.2944 1.00012 1 41.2945 1 91.0001C1 140.706 41.2944 181 91 181Z" stroke="white" stroke-width="2"/>
<path d="M22.2962 117.002L11.2418 120.636L10.4185 118.132L14.9134 112.228L14.8921 112.164L9.08425 114.073L8.09774 111.072L19.1522 107.438L19.9897 109.986L15.495 115.817L15.5234 115.903L21.3097 114.001L22.2962 117.002Z" fill="white"/>
<path d="M14.013 127.34L12.3996 124.337L24.468 122.213L26.5117 126.017L18.079 134.908L16.4655 131.905L22.6885 125.672L22.6454 125.591L14.013 127.34ZM17.756 124.606L20.7894 130.252L18.7072 131.371L15.6739 125.725L17.756 124.606Z" fill="white"/>
<path d="M32.3234 142.096L30.3268 139.589C30.52 139.406 30.6704 139.209 30.7779 138.997C30.8878 138.789 30.9503 138.569 30.9656 138.339C30.9862 138.11 30.9547 137.876 30.8712 137.637C30.7907 137.396 30.656 137.157 30.4672 136.92C30.1368 136.506 29.7564 136.235 29.326 136.108C28.8979 135.984 28.4368 135.998 27.9425 136.149C27.4506 136.304 26.941 136.591 26.4136 137.011C25.8566 137.455 25.449 137.901 25.1907 138.349C24.9378 138.797 24.8298 139.239 24.8667 139.675C24.9066 140.108 25.0859 140.524 25.4045 140.924C25.5863 141.152 25.7773 141.334 25.9775 141.47C26.1807 141.604 26.3903 141.694 26.6061 141.74C26.8219 141.786 27.0399 141.789 27.26 141.749C27.4855 141.71 27.7078 141.627 27.927 141.501L29.9058 144.022C29.4971 144.299 29.0184 144.503 28.4697 144.635C27.924 144.765 27.3454 144.792 26.7339 144.718C26.1277 144.644 25.5218 144.436 24.9161 144.095C24.3105 143.755 23.7421 143.251 23.2111 142.584C22.5455 141.749 22.1277 140.856 21.9575 139.907C21.7897 138.961 21.9005 138.018 22.2899 137.078C22.6817 136.141 23.3813 135.272 24.3886 134.469C25.4019 133.662 26.4109 133.178 27.4157 133.017C28.4235 132.853 29.3695 132.962 30.2537 133.342C31.1408 133.72 31.9101 134.318 32.5615 135.136C33.0194 135.711 33.3621 136.302 33.5898 136.91C33.8175 137.518 33.9254 138.125 33.9135 138.73C33.9045 139.333 33.7693 139.92 33.5078 140.491C33.2464 141.063 32.8516 141.598 32.3234 142.096Z" fill="white"/>
<path d="M40.1065 143.841L32.0596 152.247L29.7777 150.062L37.8245 141.657L40.1065 143.841Z" fill="white"/>
<path d="M47.6325 157.377C46.8704 158.424 46.0239 159.16 45.0929 159.583C44.1641 160.004 43.2187 160.148 42.2568 160.015C41.2972 159.879 40.3915 159.501 39.54 158.881C38.6823 158.258 38.0421 157.509 37.6194 156.634C37.2021 155.759 37.0504 154.815 37.1644 153.802C37.2837 152.788 37.7221 151.76 38.4797 150.719C39.2418 149.671 40.0857 148.936 41.0114 148.513C41.9424 148.09 42.8863 147.945 43.8429 148.079C44.8047 148.212 45.7145 148.59 46.5722 149.214C47.4238 149.834 48.0609 150.58 48.4836 151.455C48.9085 152.326 49.0628 153.269 48.9466 154.286C48.8326 155.299 48.3945 156.329 47.6325 157.377ZM45.0043 155.465C45.4143 154.901 45.6846 154.372 45.8153 153.877C45.9512 153.381 45.9461 152.927 45.7999 152.517C45.6591 152.105 45.3773 151.745 44.9545 151.438C44.5318 151.13 44.1014 150.972 43.6634 150.962C43.2306 150.952 42.7977 151.087 42.3646 151.367C41.9368 151.646 41.5179 152.067 41.1079 152.631C40.6979 153.194 40.425 153.724 40.289 154.22C40.1583 154.715 40.1635 155.169 40.3043 155.58C40.4505 155.991 40.7349 156.35 41.1577 156.658C41.5804 156.965 42.0081 157.124 42.4409 157.134C42.879 157.144 43.3119 157.009 43.7397 156.73C44.1728 156.45 44.5943 156.029 45.0043 155.465Z" fill="white"/>
<path d="M61.5117 158.272L56.3877 168.72L54.0206 167.559L52.9378 160.219L52.8766 160.189L50.1845 165.678L47.3481 164.286L52.4722 153.839L54.88 155.02L55.9116 162.31L55.9932 162.35L58.6753 156.881L61.5117 158.272Z" fill="white"/>
<path d="M63.2411 171.488L59.9645 170.546L66.8696 160.423L71.0199 161.615L71.4979 173.86L68.2214 172.919L68.1034 164.112L68.0161 164.087L63.2411 171.488ZM63.8973 166.899L70.0571 168.669L69.4044 170.941L63.2445 169.171L63.8973 166.899Z" fill="white"/>
<path d="M75.2295 174.749L76.572 163.19L79.71 163.554L78.6612 172.585L83.3343 173.127L83.0406 175.656L75.2295 174.749Z" fill="white"/>
<path d="M99.3078 175.63L94.8646 176.181L93.4333 164.633L97.8314 164.088C99.0193 163.941 100.074 164.045 100.996 164.4C101.921 164.751 102.672 165.329 103.249 166.136C103.83 166.938 104.195 167.94 104.344 169.143C104.493 170.346 104.386 171.409 104.023 172.332C103.66 173.251 103.077 173.995 102.273 174.564C101.469 175.129 100.481 175.485 99.3078 175.63ZM97.6698 173.131L98.8652 172.983C99.4366 172.912 99.912 172.759 100.291 172.525C100.675 172.291 100.943 171.935 101.098 171.458C101.256 170.98 101.286 170.339 101.186 169.535C101.086 168.73 100.899 168.116 100.626 167.692C100.355 167.267 100 166.989 99.5601 166.856C99.1238 166.723 98.6049 166.694 98.0034 166.769L96.8982 166.906L97.6698 173.131Z" fill="white"/>
<path d="M108.863 174.331L105.649 163.147L113.709 160.831L114.412 163.278L109.388 164.721L109.941 166.643L114.55 165.319L115.253 167.766L110.644 169.09L111.196 171.012L116.198 169.575L116.901 172.021L108.863 174.331Z" fill="white"/>
<path d="M120.701 170.89L115.89 160.295L118.766 158.989L122.525 167.267L126.809 165.321L127.861 167.639L120.701 170.89Z" fill="white"/>
<path d="M143.161 150.705C143.965 151.721 144.445 152.735 144.602 153.745C144.756 154.753 144.64 155.702 144.253 156.593C143.863 157.48 143.255 158.251 142.429 158.904C141.597 159.561 140.703 159.976 139.748 160.147C138.792 160.314 137.842 160.205 136.897 159.822C135.953 159.434 135.082 158.735 134.283 157.725C133.479 156.709 132.999 155.698 132.841 154.692C132.684 153.682 132.799 152.734 133.186 151.849C133.573 150.958 134.183 150.184 135.015 149.526C135.841 148.873 136.732 148.461 137.688 148.289C138.641 148.115 139.591 148.221 140.539 148.606C141.484 148.989 142.358 149.689 143.161 150.705ZM140.612 152.721C140.18 152.174 139.743 151.771 139.301 151.512C138.86 151.247 138.422 151.13 137.987 151.16C137.553 151.185 137.13 151.359 136.72 151.683C136.31 152.008 136.042 152.379 135.915 152.799C135.788 153.213 135.801 153.666 135.954 154.158C136.107 154.645 136.4 155.162 136.832 155.709C137.265 156.256 137.701 156.661 138.142 156.926C138.584 157.185 139.022 157.303 139.456 157.278C139.891 157.248 140.314 157.071 140.724 156.746C141.134 156.422 141.402 156.053 141.529 155.639C141.656 155.22 141.643 154.767 141.489 154.28C141.337 153.787 141.044 153.267 140.612 152.721Z" fill="white"/>
<path d="M149.673 152.787L141.094 144.925L146.76 138.742L148.636 140.462L145.105 144.316L146.579 145.667L149.819 142.132L151.696 143.851L148.456 147.387L149.93 148.738L153.447 144.901L155.323 146.621L149.673 152.787Z" fill="white"/>
<path d="M155.078 133.714C154.746 133.529 154.422 133.483 154.104 133.576C153.789 133.666 153.49 133.924 153.206 134.349C153.025 134.62 152.91 134.864 152.86 135.082C152.81 135.294 152.812 135.478 152.868 135.633C152.923 135.789 153.021 135.915 153.161 136.013C153.273 136.097 153.392 136.147 153.518 136.163C153.643 136.174 153.779 136.151 153.926 136.094C154.07 136.035 154.228 135.942 154.399 135.815C154.571 135.688 154.757 135.526 154.957 135.327L155.658 134.647C156.129 134.187 156.584 133.829 157.025 133.571C157.465 133.314 157.892 133.149 158.306 133.074C158.717 132.998 159.116 133.007 159.504 133.102C159.893 133.194 160.274 133.361 160.644 133.604C161.279 134.032 161.711 134.551 161.942 135.16C162.172 135.77 162.207 136.444 162.046 137.184C161.887 137.92 161.534 138.698 160.987 139.517C160.425 140.358 159.811 141.009 159.144 141.469C158.478 141.927 157.772 142.157 157.024 142.158C156.275 142.155 155.494 141.884 154.682 141.347L156.348 138.852C156.655 139.034 156.953 139.126 157.243 139.128C157.533 139.13 157.81 139.047 158.074 138.877C158.34 138.703 158.584 138.45 158.807 138.116C158.994 137.835 159.116 137.578 159.173 137.342C159.23 137.107 159.23 136.9 159.172 136.72C159.114 136.54 159.008 136.396 158.852 136.288C158.702 136.192 158.54 136.155 158.367 136.176C158.193 136.191 157.991 136.275 157.762 136.427C157.529 136.578 157.254 136.806 156.936 137.112L156.084 137.938C155.326 138.67 154.565 139.139 153.8 139.343C153.034 139.542 152.274 139.388 151.52 138.88C150.903 138.473 150.476 137.951 150.236 137.313C149.996 136.67 149.944 135.967 150.079 135.206C150.216 134.441 150.54 133.676 151.051 132.91C151.573 132.129 152.154 131.541 152.797 131.145C153.439 130.749 154.101 130.556 154.782 130.565C155.463 130.568 156.121 130.78 156.757 131.2L155.078 133.714Z" fill="white"/>
<path d="M157.109 128.938L154.799 127.869L159.049 118.691L161.359 119.761L159.888 122.937L168.137 126.757L166.829 129.582L158.579 125.762L157.109 128.938Z" fill="white"/>
<path d="M171.1 120.106L159.916 116.893L162.232 108.833L164.679 109.535L163.235 114.559L165.157 115.112L166.482 110.503L168.928 111.206L167.604 115.815L169.526 116.367L170.963 111.365L173.41 112.068L171.1 120.106Z" fill="white"/>
<circle cx="12.5002" cy="90.4999" r="3.5" fill="white"/>
<circle cx="171.5" cy="90.4999" r="3.5" fill="white"/>
<circle cx="92.0002" cy="89.9999" r="68" stroke="white" stroke-width="2"/>
<path d="M60.9093 71.0908H70.3866V93.4544C70.3866 96.1135 69.7502 98.4147 68.4775 100.358C67.2162 102.29 65.4548 103.784 63.1934 104.841C60.9321 105.886 58.3071 106.409 55.3184 106.409C52.3071 106.409 49.6707 105.886 47.4093 104.841C45.148 103.784 43.3866 102.29 42.1252 100.358C40.8752 98.4147 40.2502 96.1135 40.2502 93.4544V71.0908H49.7275V92.6362C49.7275 93.7158 49.9662 94.6817 50.4434 95.534C50.9207 96.3749 51.5798 97.034 52.4207 97.5112C53.273 97.9885 54.2389 98.2272 55.3184 98.2272C56.4093 98.2272 57.3752 97.9885 58.2162 97.5112C59.0571 97.034 59.7162 96.3749 60.1934 95.534C60.6707 94.6817 60.9093 93.7158 60.9093 92.6362V71.0908ZM106.535 71.0908V106H98.6263L86.0127 87.659H85.8081V106H76.3309V71.0908H84.3763L96.7854 89.3635H97.0581V71.0908H106.535ZM146.277 88.5453C146.277 92.4317 145.521 95.7101 144.01 98.3806C142.498 101.04 140.458 103.057 137.89 104.432C135.322 105.795 132.458 106.477 129.299 106.477C126.117 106.477 123.242 105.79 120.674 104.415C118.117 103.028 116.083 101.006 114.572 98.3465C113.072 95.676 112.322 92.409 112.322 88.5453C112.322 84.659 113.072 81.3862 114.572 78.7272C116.083 76.0567 118.117 74.0396 120.674 72.676C123.242 71.301 126.117 70.6135 129.299 70.6135C132.458 70.6135 135.322 71.301 137.89 72.676C140.458 74.0396 142.498 76.0567 144.01 78.7272C145.521 81.3862 146.277 84.659 146.277 88.5453ZM136.527 88.5453C136.527 86.4544 136.248 84.6931 135.691 83.2612C135.146 81.8181 134.333 80.7271 133.254 79.9885C132.186 79.2385 130.867 78.8635 129.299 78.8635C127.731 78.8635 126.407 79.2385 125.328 79.9885C124.26 80.7271 123.447 81.8181 122.89 83.2612C122.345 84.6931 122.072 86.4544 122.072 88.5453C122.072 90.6362 122.345 92.4033 122.89 93.8465C123.447 95.2783 124.26 96.3692 125.328 97.1192C126.407 97.8578 127.731 98.2272 129.299 98.2272C130.867 98.2272 132.186 97.8578 133.254 97.1192C134.333 96.3692 135.146 95.2783 135.691 93.8465C136.248 92.4033 136.527 90.6362 136.527 88.5453Z" fill="white"/>
</svg>
